<?xml version="1.0" encoding="utf-8"?>
<!-- Generator: Adobe Illustrator 27.5.0, SVG Export Plug-In . SVG Version: 6.00 Build 0)  -->
<svg version="1.1" id="Слой_1" xmlns="http://www.w3.org/2000/svg" xmlns:xlink="http://www.w3.org/1999/xlink" x="0px" y="0px"
	 viewBox="0 0 1593.071 1034.947" style="enable-background:new 0 0 1593.071 1034.947;" xml:space="preserve">
<g>
	<rect style="fill:#FFFFFF;" width="1593.071" height="1034.947"/>
	<g>
		<path style="fill:#E09E7E;" d="M769.257,810.021c-2.819,3.003-10.722,5.954-10.722,5.954s-12.934-3.766-15.169-9.008
			c-1.042-2.417,0-7.227,1.372-11.934c1.626-5.445,3.761-10.738,3.761-11.934c0-2.239-1.093-15.7-1.067-20.916
			c0-5.242,2.846-17.176-0.509-28.397c-3.328-11.196-12.831-44.835-15.042-61.273c-2.21-16.438-2.693-47.049-1.524-56.031
			c1.144-8.956,4.548-14.173,1.753-25.368c-2.795-11.222-17.303-57.558-20.072-76.234c-1.296-8.805-1.601-24.225-0.814-40.637
			c3.202,1.12,6.632,1.73,10.291,1.68c3.507-0.051,7.013-0.331,10.493-0.636c1.805-0.026,3.583-0.026,5.387,0
			c2.541,0.076,5.133,0.102,7.775,0.076c1.271-0.026,2.541-0.153,3.786-0.331c3.023,0.534,6.123,0.636,9.172,0.356
			c2.923,5.954,6.124,14.682,5.769,28.422c-0.636,23.155,0.914,77.685-1.373,86.642c-2.261,8.957-2.286,14.173-1.168,18.651
			c1.117,4.479,4.979,29.135,3.227,56.768c-1.778,27.634-4.116,62.724-1.906,80.662c2.211,17.94,4.473,14.198,3.889,22.417
			c-0.585,8.22-1.17,11.196,2.185,19.415c0.737,1.781,1.296,3.665,1.702,5.573C771.95,800.784,771.468,807.68,769.257,810.021z"/>
		<path style="fill:#29B473;" d="M769.257,810.021c-2.819,3.003-10.722,5.954-10.722,5.954s-12.934-3.766-15.169-9.008
			c-1.042-2.417,0-7.227,1.372-11.934c3.963,2.392,10.087,4.605,13.695,4.274c2.922-0.279,8.385-3.232,12.018-5.368
			C771.95,800.784,771.468,807.68,769.257,810.021z"/>
		<path style="fill:#1F8756;" d="M804.048,690.858c0-2.821-9.294-7.897-23.235-7.897s-26.615,7.191-31.686,8.884
			c-5.069,1.692-2.535-202.655,29.15-204.771c31.686-2.115,35.065,56.693,35.065,56.693l-4.646,128.193L804.048,690.858z"/>
		<path style="fill:#383737;" d="M803.485,209.512c-1.924,8.102-15.182,28.459-10.685,35.515
			c4.521,7.033-8.065,21.564-10.129,20.868c-1.854-0.627-17.569,3.923-24.221-1.532c-0.278,0.371-0.533,0.742-0.835,1.114
			c-4.936,6.383-22.738-5.409-27.721-11.096c-4.984-5.687,15.02-9.749,7.556-13.23c-7.44-3.459-7.95-8.867-1.784-17.502
			c6.165-8.658-6.561-11.443-13.119-22.237c-2.109-3.505-1.646-6.477,0.046-8.913c3.546-5.084,12.4-7.822,14.208-8.078
			c2.689-0.395,0.395-8.867,0.023-14.275c-0.395-5.408,10.014-13.904,16.943-15.088l0.951,0.65l41.049,27.947
			C795.768,183.654,805.409,201.411,803.485,209.512z"/>
		<path style="fill:#EEA886;" d="M799.824,256.176c-4.219,1.272-52.088,2.112-60.981,0c3.634-2.977,12.832-6.361,15.347-8.88
			c1.729-1.73,2.287-8.193,2.414-13.944c0.076-2.697,0.051-5.216,0.025-7.049c0,0,19.539-2.9,23.757,0
			c-0.381,0.993-0.508,2.138-0.432,3.385c0.203,3.868,2.21,8.626,3.989,12.163c1.474,2.926,2.795,5.013,2.795,5.013
			S794.844,251.036,799.824,256.176z"/>
		<path style="fill:#EEA886;" d="M894.105,512.459c-0.681-1.699-1.643-9.468-1.643-9.468s1.157-4.438,1.477-6.255
			c0.319-1.816-1.318-3.953-1.783-5.093c-0.464-1.141-1.624-3.991-1.788-4.715c-0.164-0.724-7.111-12.756-8.148-13.697
			c-1.036-0.94-2.54-6.666-3.481-10.373c0,0-0.049-0.044-0.096-0.087c-3.125-8.88-7.113-22.763-11.029-41.047
			c-5.768-26.922-15.626-43.055-17.836-47.914c-1.143-2.57-2.16-7.634-3.101-13.563c-0.279-1.883-0.584-3.868-0.838-5.878
			c-0.534-3.639-1.017-7.38-1.474-10.891c-3.075-23.231-12.349-60.789-16.033-73.817c-3.685-13.053-35.699-16.132-35.699-16.132
			s-32.523-4.174-48.175,1.501c0,0-31.939,3.816-35.317,16.946c-3.379,13.104-11.814,50.865-14.356,74.174
			c-0.433,4.046-0.89,8.346-1.398,12.442c-0.203,1.756-0.432,3.461-0.66,5.089c-0.762,5.624-1.651,10.407-2.693,12.901
			c-2.083,4.911-11.561,21.247-16.719,48.295c-3.582,18.728-7.343,32.876-10.29,41.807c0.043,0.004,0.082,0.016,0.126,0.02
			c-0.86,3.68-2.086,8.563-3.015,9.443c-1.015,0.965-7.688,13.151-7.837,13.879c-0.148,0.728-1.243,3.603-1.682,4.754
			c-0.438,1.15-2.027,3.322-1.667,5.132c0.36,1.81,1.618,6.22,1.618,6.22s-0.787,7.789-1.43,9.502
			c-0.642,1.714,1.622,1.669,1.622,1.669s-0.224,1.607,0.667,1.765c0.89,0.158,2.894-1.133,3.502-2.616c0,0,0.04,1.821,1.248,0.919
			c1.208-0.902,3.073-3.53,4.066-4.889c0.992-1.359,3.108-6.231,4.2-8.076c1.091-1.844,3.399-6.654,3.717-7.714
			c0.317-1.061,1.763-6.666,2.657-7.54c0.895-0.874,3.533-4.285,4.607-2.002c1.073,2.284,1.207,4.652,1.9,5.78
			c0.693,1.128,3.302,4.94,4.939,4.951c1.637,0.011,2.313-0.288,1.811-1.353c-0.5-1.066-0.805-3.102-1.064-4.348
			c-0.259-1.246-3.266-7.642-3.354-9.22c-0.09-1.579-0.425-7.5-0.778-9.294c-0.354-1.793-3.243-7.246-3.311-8.43
			c-0.039-0.686-0.098-4.325-0.221-7.167c2.376-6.625,11.551-26.917,20.555-47.008c9.452-21.146,7.268-27.659,10.266-34.708
			c0.609-1.425,1.448-3.511,2.414-6.157c0.965-2.621,2.108-5.776,3.328-9.415c3.735-10.789,8.486-25.675,13.264-42.265
			c2.185-11.807,0.863-22.851,2.973-22.851c1.956,0,79.757-1.856,81.713-1.908c2.109,0,5.801,10.549,8.266,22.278
			c5.361,17.201,5.913,33.04,9.928,43.854c1.398,3.766,2.643,6.997,3.684,9.567c0.763,1.883,1.398,3.385,1.906,4.504
			c3.176,6.972,1.143,13.537,11.053,34.453c9.864,20.767,19.969,41.793,21.902,47.346c-0.051,2.801-0.029,6.244-0.053,6.91
			c-0.04,1.185-2.806,6.702-3.119,8.502c-0.313,1.802-0.515,7.729-0.568,9.31c-0.054,1.58-2.915,8.041-3.147,9.293
			c-0.23,1.252-0.489,3.294-0.966,4.371c-0.477,1.077,0.205,1.36,1.842,1.312c1.636-0.048,4.157-3.918,4.825-5.062
			c0.668-1.143,0.748-3.514,1.771-5.821c1.021-2.308,3.737,1.044,4.651,1.897c0.914,0.854,2.484,6.425,2.826,7.478
			s2.758,5.81,3.891,7.628c1.133,1.819,3.357,6.643,4.381,7.979c1.023,1.336,2.947,3.921,4.176,4.796
			c1.227,0.875,1.227-0.947,1.227-0.947c0.642,1.47,2.674,2.715,3.56,2.537c0.887-0.178,0.627-1.779,0.627-1.779
			S894.785,514.157,894.105,512.459z"/>
		<path style="fill:#EEA886;" d="M797.41,605.669c-2.82,11.221,0.178,15.598,1.296,24.555c1.118,8.982,3.43,40.433,1.169,56.87
			c-2.262,16.412-11.892,50.025-15.271,61.222c-3.379,11.196-0.584,23.155-0.584,28.372c-0.025,5.241-1.143,18.677-1.143,20.916
			c0,1.119,1.702,5.521,3.228,10.381c1.6,5.166,2.973,10.815,1.804,13.512c-2.262,5.242-15.22,8.957-15.22,8.957
			s-7.877-3.002-10.697-5.979c-2.185-2.341-2.668-9.186-1.169-15.979c0.407-1.934,0.991-3.868,1.753-5.675
			c3.405-8.219,2.846-11.222,2.287-19.415c-0.559-8.219,1.678-4.504,3.964-22.417c2.262-17.913,0.051-53.028-1.626-80.662
			c-1.652-27.634,4.852-52.265,5.996-56.743c1.042-4.173-1.118-4.504-0.686-15.496c0-0.28-0.051-0.815-0.127-1.399
			c-0.102-0.687-0.229-1.425-0.306-1.781c-1.245-4.987-2.058-24.198-2.617-44.224c-0.203-7.99-0.406-16.133-0.559-23.537
			c-0.152-7.252-0.279-13.817-0.406-18.881c-0.534-23.155,9.045-32.112,10.188-37.328c0.406-1.959,3.431-9.211,7.318-17.735
			c0.102,0,0.203,0.025,0.305,0.025h14.66c6.098,0,12.426-1.985,17.634-5.42c3.405,25.267,3.888,57.328,1.702,71.705
			C817.482,548.188,800.23,594.473,797.41,605.669z"/>
		<path style="fill:#29B473;" d="M787.907,821.496c-2.262,5.242-15.22,8.957-15.22,8.957s-7.877-3.002-10.697-5.979
			c-2.185-2.341-2.668-9.186-1.169-15.979c1.169,1.246,6.099,6.056,11.968,6.056c6.072,0,12.146-5.445,13.315-6.565
			C787.703,813.15,789.076,818.799,787.907,821.496z"/>
		<path style="fill:#A77860;" d="M783.943,241.851c-0.203,0.152-0.406,0.255-0.584,0.255c-2.313,0-17.101-3.104-26.756-8.754
			c0.076-2.697,0.051-5.216,0.025-7.049c4.167,1.808,16.135,4.072,23.325,3.385C780.157,233.556,782.164,238.314,783.943,241.851z"
			/>
		<path style="fill:#EEA886;" d="M797.325,191.596c0,20.179-12.456,40.005-27.822,40.005c-15.366,0-27.822-19.826-27.822-40.005
			c0-20.178,12.456-36.536,27.822-36.536C784.869,155.06,797.325,171.418,797.325,191.596z"/>
		<path style="fill:#EEA886;" d="M747.153,196.088c1.16,4.909-0.93,9.607-4.667,10.493c-3.738,0.887-7.71-2.375-8.87-7.283
			c-1.16-4.909,0.93-9.607,4.668-10.493C742.021,187.918,745.993,191.18,747.153,196.088z"/>
		<path style="fill:#383737;" d="M753.771,155.06c0.848,5.675,3.854,12.382,11.561,10.838c7.708-1.544,16.957-4.245,17.729,6.561
			c0.771,10.806-8.864,18.525,3.469,23.542c12.332,5.018,8.093,18.048,1.927,18.525c-6.167,0.479-22.593,9.176-12.333,15.824
			c6.552,4.245,4.239,8.104,0,10.421c-4.239,2.316,3.236,20.069,19.924,17.367c16.688-2.701,6.282,11.578,4.355,10.807
			c1.156,2.702,8.479,3.859,13.104,2.315c7.608-2.539,11.177-10.42,4.239-16.21c-4.8-4.005-13.874-5.789-9.249-8.104
			c4.625-2.315,9.616-0.814,8.854-8.513c-0.762-7.697-15.021-11.861-12.323-14.797c2.697-2.935,10.157-0.119,12.4-9.053
			c2.244-8.934-8.161-18.908-10.858-21.254c-2.698-2.346,3.854-5.819,3.854-12.767c0-6.947-14.797-18.911-17.611-20.069
			c-2.815-1.158-2.815-13.894-21.313-13.894C757.234,146.601,753.771,155.06,753.771,155.06z"/>
		<polygon style="fill:#29B473;" points="791.924,155.477 778.435,167.441 780.362,170.143 792.812,160.494 		"/>
		<path style="fill:#383737;" d="M753.396,175.553c-5.029,3.088-9.642,4.248-7.718,9.633c1.924,5.408-1.066,7.033-3.987,6.407
			c-2.943-0.604-8.738-2.159-9.896,2.483c-0.649,2.623-5.354,1.16-9.202-1.578c3.546-5.084,12.4-7.822,14.208-8.078
			c2.689-0.395,0.395-8.867,0.023-14.275c-0.395-5.408,10.014-13.904,16.943-15.088l0.951,0.65c1.413,2.158,2.525,4.016,2.525,4.016
			C757.615,163.575,758.403,172.466,753.396,175.553z"/>
		<path style="fill:#A77860;" d="M693.387,358.594l18.523,2.188c-1.22,3.639-2.363,6.794-3.328,9.415
			c-0.661,0.229-1.322,0.33-1.982,0.254c-3.303-0.355-9.655-3.333-13.873-6.768L693.387,358.594z"/>
		<path style="fill:#A77860;" d="M845.839,354.37l-17.786,5.521c1.398,3.766,2.643,6.997,3.684,9.567
			c0.509-0.025,1.042-0.076,1.602-0.152c7.8-1.018,11.535-5.114,13.339-9.059L845.839,354.37z"/>
		<path style="fill:#A77860;" d="M801.933,486.305c-19.793,47.888-25.332,89.364-29.55,120.382
			c-0.102-0.687-0.229-1.425-0.306-1.781c-1.245-4.987-2.058-24.198-2.617-44.224c0.229-20.917,1.881-44.607,6.708-61.705
			L801.933,486.305z"/>
		<path style="fill:#29B473;" d="M730.257,315.161c0.564,6.77-1.127,6.77,3.943,21.436c5.069,14.667,5.633,28.205,2.816,38.359
			s-23.377,46.539-30.418,72.77c-6.022,22.435-6.76,47.386,0,94.77c6.759,47.386,15.209,88.001,15.773,104.925
			c0.563,16.923-4.507,31.59-1.69,35.539c2.815,3.948,19.151,13.538,26.474,12.975c7.323-0.565,16.899-3.949,19.716-5.077
			c-3.099-23.411,5.21-149.63,25.771-188.554c36.755-5.5,8.026,132.848,10.28,189.682c2.253,2.538,12.955,2.256,15.209-2.82
			c2.253-5.077-7.887-54.719-5.07-72.206s10.702-72.771,11.829-86.309c1.127-13.539,2.816-55.283-2.816-85.745
			c-5.633-30.462-7.393-37.422-10.14-49.642c-10.139-45.129,15.772-61.206,11.829-74.744c-3.942-13.539-42.81-7.052-42.81-7.052
			L730.257,315.161z"/>
		<path style="fill:#29B473;" d="M709.133,271.967c4.788,3.143,33.517,10.477,45.346,11.04c11.829,0.564,60.836-1.128,64.778-2.82
			c3.943-1.692,7.886-5.077,11.266-6.205c3.38-1.128,10.703,26.513,15.209,40.052c4.507,13.538,18.025,24.257,15.773,30.462
			c-2.253,6.205-21.405,18.615-30.982,18.615c-9.575,0-12.955-3.948-10.702-6.769c2.253-2.821,1.127-22.001-1.127-27.642
			c-2.253-5.642-30.417,1.692-52.386-2.257c-21.969-3.948-36.051-11.282-36.051-11.282s-7.323,23.692-6.76,29.334
			c0.563,5.641,6.76,15.795,0.563,18.052c-6.196,2.256-33.234,0.564-39.994-5.642c-6.759-6.205-1.126-7.897,2.816-15.795
			c3.943-7.898,11.267-47.949,12.956-54.719C701.529,279.623,709.133,271.967,709.133,271.967z"/>
		<g>
			<path style="fill:#1F8756;" d="M814.469,348.443c0.04-0.122,4.025-13.698,5.665-23.006c1.114-6.322-1.022-15.336-2.583-21.919
				c-0.672-2.839-1.203-5.081-1.382-6.691c0,0,8.542,21.186,7.245,28.544C821.715,335.018,814.469,348.443,814.469,348.443z"/>
		</g>
		<path style="fill:#A77860;" d="M777.15,614.421c0.986,5.5,3.662,6.065,5.352,6.065L777.15,614.421z"/>
		<path style="fill:#A77860;" d="M793.803,614.104c-0.316,0.74-1.584,4.831-3.907,5.395
			C788.823,619.759,793.803,614.104,793.803,614.104z"/>
	</g>
	<g>
		<path style="fill:#383737;" d="M560.669,213.511c-1.021,8.811-2.213,43.712-1.051,51.967c1.163,8.257,3.448,30.814,0.551,38.033
			c-2.896,7.221-8.103,58.832-7.867,68.56c0.236,9.728-3.617,24.251-5.712,27.834c-2.096,3.583-4.154,6.304-4.154,6.304
			s-1.722-5.257-2.498-12.416c-0.777-7.16-0.541,2.568-0.875,5.362c-0.334,2.793-1.306,5.344-1.306,5.344s-0.024-4.536-0.498-8.66
			c-0.474-4.123-8.012-14.808-5.904-23.789c2.107-8.981-1.898-11.311-1.803-18.649c0.095-7.339,13.499-109.787,14.19-110.837
			C544.435,241.512,560.669,213.511,560.669,213.511z"/>
		<path style="fill:#383737;" d="M540.329,196.275c-5.59-2.209-37.083-3.363-44.519,7.356c-7.435,10.721-13.333,41.738-12.59,54.692
			c0.743,12.953,2.602,45.338,2.602,45.338l35.816,0.331c0,0,13.513-61.157,20.045-67.569
			C548.217,230.011,540.329,196.275,540.329,196.275z"/>
		<path style="fill:#383737;" d="M496.846,207.698c-0.252,4.572-2.09,16.639-6.465,23.072c-4.375,6.433-2.445,31.05-2.086,38.821
			c0.36,7.772,1.523,22.023-1.534,25.879c-3.056,3.855-4.626-12.989-6.217-27.678c-1.591-14.688,3.336-34.061,6.448-43.959
			c3.112-9.897,2.333-18.967,4.942-21.101c2.608-2.134,23.458-16.614,41.103-11.272c17.644,5.342,9.825,10.88,5.074,11.268
			c-4.751,0.388-22.895,2.378-23.357,5.826c-0.464,3.448-10.885,10.257-14.332,9.793
			C496.973,217.885,496.846,207.698,496.846,207.698z"/>
		<path style="fill:#EEA886;" d="M675.348,819.49c0,0-1.74,1.703-5.184,2.246c-3.442,0.542-26.326-9.412-28.59-12.893
			c-2.265-3.461-17.683-11.059-22.267-12.836c-4.565-1.759-5.689-5.201-4.51-9.225c1.197-4.004,6.979-9.692,6.979-9.692l0.075-7.466
			c0,0,10.422-10.235,13.229-2.17c2.788,8.065,16.952,28.291,20.956,30.63c0.73,0.431,1.946,1.347,3.406,2.601
			C665.974,806.243,677.705,818.106,675.348,819.49z"/>
		<path style="fill:#EEA886;" d="M489.825,801.996c-0.617,5.726-5.744,1.665-10.927,2.769c-5.184,1.104-18.506,14.745-25.429,18.712
			c-6.923,3.947-25.859,2.619-29.265-0.861c0,0,7.896-5.089,15.212-10.011c4.884-3.293,9.524-6.511,11.358-8.102
			c4.621-3.985,17.345-13.042,20.227-14.744c2.882-1.685-0.486-8.607-0.449-13.211c0.037-4.584,16.653-1.553,15.475,1.871
			c-0.73,2.134,1.16,8.515,2.545,14.408C489.414,796.42,490.068,799.825,489.825,801.996z"/>
		<path style="fill:#EEA886;" d="M626.139,524.077c-0.691-1.773-1.618-9.864-1.618-9.864s1.247-4.605,1.598-6.492
			c0.351-1.887-1.333-4.125-1.806-5.315c-0.472-1.19-1.651-4.167-1.815-4.922c-0.164-0.755-7.275-13.339-8.345-14.327
			c-0.839-0.776-1.947-4.615-2.843-8.101c0.082-0.009-6.423-22.55-10.053-40.83c-4.172-20.994-11.227-29.994-14.987-35.215v-0.019
			c-0.974-1.348-1.722-2.433-2.134-3.405c-0.093-0.206-0.168-0.468-0.243-0.786v-0.019c-0.897-3.78-1.347-15.437-2.114-20.788
			c-0.243-1.834-0.523-3.78-0.748-5.764c-0.468-3.555-0.898-7.223-1.291-10.665c-2.732-22.771-5.819-48.837-9.225-61.635
			c-1.965-7.447-19.647-11.208-34.467-9.823c-5.538,2.862-6.249,5.463-7.896,13.846c-0.692,3.537,10.908,13.304,9.823,17.046
			c5.127-0.074,8.477-0.131,8.851-0.15c2.021,0.019,0.898,10.853,3.144,22.36c4.939,16.896,9.86,31.94,13.584,42.567
			c1.31,3.686,2.451,6.867,3.424,9.393c0.711,1.853,1.31,3.33,1.778,4.435c1.29,2.975,1.628,5.857,2.376,9.86
			c0.973,5.221,2.602,12.331,7.84,23.97c7.455,16.518,15.407,27.761,19.135,34.285c-0.115,3.027-0.124,7.515-0.158,8.299
			c-0.054,1.232-2.984,6.945-3.327,8.815c-0.343,1.871-0.609,8.034-0.681,9.679c-0.071,1.644-3.109,8.337-3.362,9.637
			c-0.253,1.301-0.541,3.422-1.048,4.538c-0.506,1.115,0.201,1.417,1.903,1.382c1.703-0.034,4.363-4.035,5.069-5.219
			c0.705-1.183,0.813-3.648,1.897-6.039c1.085-2.391,3.877,1.122,4.82,2.019c0.942,0.898,2.522,6.708,2.868,7.806
			c0.345,1.099,2.813,6.07,3.973,7.974c1.161,1.902,3.43,6.941,4.481,8.342c1.052,1.399,3.028,4.107,4.297,5.029
			c1.269,0.922,1.286-0.974,1.286-0.974c0.653,1.534,2.756,2.85,3.68,2.673c0.924-0.177,0.669-1.845,0.669-1.845
			S626.83,525.852,626.139,524.077z"/>
		<path style="fill:#EEA886;" d="M515.33,262.299c-1.059,7.83,0.788,21.566-4.174,24.461c-4.962,2.894,25.346,6.323,27.508-0.131
			c2.162-6.455-0.38-36.056-0.38-36.056L515.33,262.299z"/>
		<path style="fill:#EEA886;" d="M512.308,285.783c0,0-1.444,0.357-3.512,0.844h-0.02c-3.453,0.805-8.661,1.925-11.896,2.245
			c-5.183,0.536-38.461,35.269-52.306,42.031c-13.845,6.763-30.248,16.559-39.468,19.919c5.705,4.063,30.44,51.147,34.422,56.343
			c3.962,5.215,10.772,13.882,8.443,17.307c-2.328,3.424-1.307,17.196-3.047,20.061c-1.759,2.846-3.477,3.414-8.066,2.787
			c-4.589-0.607-10.352,1.637-13.797,1.605c-3.445-0.032-6.854-4.094-5.116-4.642c1.719-0.568,6.323-1.674,8.631-2.802
			c2.307-1.127,9.762-1.058,9.762-1.058s-1.67-4.591-3.355-9.784c-1.665-5.174-1.053-10.347-1.026-13.208
			c0.026-2.881-12.5-16.584-25.879-30.782c-11.18-11.861-22.436-30.4-22.947-36.147c-0.53-5.747,13.081-14.673,17.366-17.047
			c8.277-4.615,27.63-23.883,44.384-35.778c6.701-4.766,14.182-9.524,21.346-13.721c10.783-6.324,20.836-11.352,26.361-13.032
			C501.803,268.147,511.785,281.185,512.308,285.783z"/>
		<path style="fill:#B99380;" d="M489.825,801.996c-0.617,5.726-5.744,1.665-10.927,2.769c-5.184,1.104-18.506,14.745-25.429,18.712
			c-6.923,3.947-25.859,2.619-29.265-0.861c0,0,7.896-5.089,15.212-10.011c0.225-0.018,0.431-0.037,0.618-0.037
			c4.359,0,13.06,4.359,18.037,3.125c4.978-1.254,15.568-13.079,16.803-16.803c1.085-3.237,9.112-6.455,13.697-6.063
			C489.414,796.42,490.068,799.825,489.825,801.996z"/>
		<path style="fill:#B99380;" d="M675.348,819.49c0,0-1.74,1.703-5.184,2.246c-3.442,0.542-26.326-9.412-28.59-12.893
			c-2.265-3.461-17.683-11.059-22.267-12.836c-4.565-1.759-5.689-5.201-4.51-9.225c1.197-4.004,6.979-9.692,6.979-9.692
			c8.775,1.235,6.792,15.567,8.027,19.311c1.254,3.724,18.674,14.313,20.545,10.571c1.179-2.357,5.108-4.733,9.094-6.287
			C665.974,806.243,677.705,818.106,675.348,819.49z"/>
		<path style="fill:#A77860;" d="M514.999,267.003v-0.019v-0.02l2.657-5.838v-0.019l14.969-7.652h0.018l5.819-0.374l0.748,11.9
			c-1.89,1.59-3.592,2.844-4.715,3.349c-3.63,1.647-14.408,4.36-19.666,4.959L514.999,267.003z"/>
		<path style="fill:#EEA886;" d="M498.569,208.621c-1.251,6.632-3.181,28.056-5.61,33.469c-2.43,5.414-2.535,16.889,6.341,21.802
			c8.877,4.914,9.438,8.544,22.269,3.83c12.832-4.713,18.179-4.06,21.82-11.878c3.642-7.817,26.51-36.598,2.876-53.728
			C522.632,184.985,498.569,208.621,498.569,208.621z"/>
		<path style="fill:#A77860;" d="M586.271,398.992v0.019c-3.78,3.311-9.505,6.324-15.138,6.455c-0.748-4.004-1.086-6.886-2.376-9.86
			l15.137-0.823v0.019L586.271,398.992z"/>
		<path style="fill:#B99380;" d="M584.74,375.568c-0.621-2.919-9.408-67.734-10.028-70.653c-0.62-2.919-2.463-13.616-9.557-16.596
			c-7.093-2.978-22.298-3.767-26.491-1.691c-3.511,1.737-6.724,13.071-9.018,17.852l-17.705-1.763l-11.541-7.015
			c5.087-2.737,8.736-4.664,8.736-4.664l-1.11-2.438l1.63-1.279c2.067-0.487,2.652-1.538,2.652-1.538
			c-0.523-4.599-10.505-17.636-19.718-14.859c-5.525,1.681-22.379,9.394-27.507,12.047c-3.317,1.717-43.005,31.408-52.131,40.119
			c-7.12,6.797-12.859,7.881-15.886,11.579c-2.051,2.504-3.611,15.799,10.493,20.361c11.238,3.636,19.518-10.697,25.041-12.913
			c5.522-2.214,22.146-14.684,25.082-17.246c1.782-1.555,4.645-4.172,7.279-6.707c0.024,0.088,0.067,0.169,0.067,0.266
			c-0.027,2.87-0.043,4.592-11.092,19.988c-11.049,15.397,3.199,26.435,2.025,29.294c-1.175,2.859-1.897,18.926-1.387,25.818
			c0.51,6.894-0.565,20.761-1.76,25.916c-1.196,5.155,17.879,31.063,25.878,35.154c7.998,4.093,59.316,7.734,58.929-12.36
			c-0.389-20.095-11.707-40.826-11.68-43.695c0.026-2.87,1.469-17.123,8.426-24.522c5.244-5.577,12.023-15.772,16.292-22.412
			c2.961,10.383,6.167,20.571,8.496,25.339c4.765,9.754,4.14,13.37,4.061,15.897c-0.102,3.25,1.989,8.392,9.438,7.813
			c7.45-0.578,13.186-3.024,17.423-6.222C594.316,391.24,585.36,378.487,584.74,375.568z"/>
		<path style="fill:#383737;" d="M512.786,421.296c8.052-1.648,17.637-7.869,23.286,1.941c5.649,9.811,14.247,45.229,15.905,52.132
			c1.658,6.904,22.449,110.001,25.261,116.342c2.812,6.34,5.044,13.249,6.739,16.135c1.695,2.886,12.55,21.725,18.114,40.719
			c5.564,18.994,20.207,72.855,24.129,83.225c3.923,10.368,14.59,36.299,14.59,36.299s-13.266,6.766-21.859,4.964
			c-4.462-8.014-10.608-32.244-10.608-32.244s-18.132-44.927-25.487-56.476c-7.355-11.549-18.846-29.991-19.909-39.186
			c-0.401-3.468-1.761-22.449-3.953-26.11c-3.506-5.858-13.803-23.122-14.992-25.205c-4.459-7.809-40.248-75.813-44.648-96.519
			c-7.199-3.325-10.986-2.043-10.986-2.043s-1.503,69.046-4.494,82.222c-2.992,13.175-5.452,30.946-4.916,34.97
			c0.537,4.023,7.384,16.444,7.735,40.557c0.351,24.112,5.064,127.179,5.064,127.179s-5.609,1.638-14.041,3.501
			c-5.772,1.275-12.389-0.875-12.389-0.875s-4.061-57.441-5.634-73.528c-1.573-16.087-4.087-62.756-4.635-65.632
			c-0.547-2.875-4.907-21.42-4.285-26.58c0.622-5.16-11.167-94.533-10.486-106.008c0.148-2.506-4.349-47.245,4.75-79.172
			c6.526-22.9,8.743-14.27,8.743-14.27L512.786,421.296z"/>
		<path style="fill:#B99380;" d="M456.979,400.928c-0.665,1.936-4.01,13.557-6.62,15.799c-2.609,2.241-3.935,5.466,0.896,8.1
			c4.831,2.634,8.738,0.081,10.027,0.74c1.288,0.659,4.821,3.605,8.381,3.638c3.561,0.033,8.107-1.543,11.014-0.869
			c2.906,0.675,3.526,3.593,14.848,4.345c11.322,0.752,15.907-5.031,18.17-4.686c2.262,0.345,4.51,2.308,8.717,2.347
			c4.207,0.039,9.742-3.471,12.338-4.094c2.595-0.623,2.873,4.234,5.799,2.967c2.924-1.268,0.398-8.089-4.101-11.69
			c-4.498-3.602-10.233-13.365-11.501-16.29C523.68,398.308,456.979,400.928,456.979,400.928z"/>
		<path style="fill:#EEA886;" d="M538.594,290.99c-4.547,2.227-5.95,13.528-10.179,15.438c-4.228,1.908-29.265,15.268-31.21,14.595
			c-1.928-0.655,0.149-15.213,0.224-23.296c0.057-6.063,6.998-9.523,11.508-11.039c0.037-0.02,0.075-0.038,0.112-0.038
			c1.328-0.448,2.433-0.711,3.068-0.823c0.057,0,0.113-0.018,0.131-0.018c0.02,0,0.038-0.019,0.057-0.019l26.364,0.842
			C538.669,286.631,543.141,288.764,538.594,290.99z"/>
		<path style="fill:#383737;" d="M546.368,196.548c-3.44-1.327-23.556-3.157-33.657-0.527
			c-16.006,4.167-15.865,11.678-15.865,11.678s9.537,19.336,26.746,25.105c17.209,5.77,2.378,22.895,2.745,29.803
			c0.368,6.908,10.568,23.834,6.625,30.271c-3.943,6.438-10.045,12.853-7.539,21.94c2.505,9.086,4.195,12.985,3.309,15.566
			c-0.888,2.581,7.032-2.286,9.239-13.39c2.207-11.104-0.262-24.073,6.694-29.619c6.956-5.546,10.96-18.456,12.33-26.642
			c1.37-8.188,7.703-39.633,3.46-47.44C556.211,205.485,549.809,197.874,546.368,196.548z"/>
		<path style="fill:#A77860;" d="M512.248,285.808c-1.609,0.917-11.507,7.017-11.844,9.898c-0.337,2.9,0.168,20.357-3.199,25.316
			c-1.928-0.655,0.149-15.213,0.224-23.296c0.057-6.063,6.998-9.523,11.508-11.039c0.037-0.02,0.075-0.038,0.112-0.038
			c1.516-0.448,2.639-0.711,3.068-0.823C512.174,285.826,512.23,285.808,512.248,285.808z"/>
	</g>
	<g>
		<path style="fill:#B99380;" d="M1067.768,534.948c-0.28,0.3-0.729,1.291-1.366,2.807c0,0,0.019,0,0,0.019
			c-2.301,5.707-6.735,19.029-11.376,33.531c-7.447,23.183-15.475,49.322-16.298,52.073c-1.459,4.902-6.698,23.333-7.054,26.607
			c-0.375,3.274-3.836,10.235-11.189,17.607c-3.48,3.48-16.242,36.842-21.499,53.944c-5.876,18.974-10.778,38.62-10.198,41.857
			c0.954,5.352,8.14,31.715,12.406,41.352c0.617,1.422,1.178,2.488,1.646,3.05c3.686,4.51,9.936,14.333,5.894,15.979
			c-4.061,1.628-11.938,4.285-17.103,3.068c-5.144-1.253-20.582-13.94-21.685-21.293c-0.375-2.545-0.243-7.223,0.094-12.668
			c0.617-10.347,1.927-23.482,1.684-29.919c-3.125-13.51-5.688-31.21-6.736-47.882c-0.936-14.651-0.692-28.517,1.366-38.078
			c4.416-20.47,20.227-36.842,21.687-39.293c1.479-2.451-2.676-29.471-6.344-49.137c-3.686-19.646-9.823-57.724-7.989-75.743
			c1.833-18,8.083-31.098,11.021-36.823c0,0,19.871-7.372,38.246,1.216C1041.366,485.831,1070.705,531.655,1067.768,534.948z"/>
		<path style="fill:#B99380;" d="M1124.729,807.613c-5.536,0.373-15.077-0.036-22.941-2.973c-3.449-1.288-7.297-5.041-22.004-2.732
			c-17.046,2.677-16.971-8.107-16.11-12.17c0.355-1.662,2.151-4.948,4.191-8.513c2.938-5.244,6.399-11.098,6.474-13.276
			c0.113-3.693-14.969-39.998-16.297-44.947c-0.3-1.107-1.328-3.582-2.657-6.979c-4.641-11.818-12.854-34.809-5.782-50.634
			c6.718-15.05,12.331-25.003,12.331-25.003s-3.532-91.938-3.72-98.087c-0.169-6.149-13.345-50.712,12.178-66.298
			c25.521-15.585,47.34-19.001,47.34-19.001c5.238,8.753,15.96,29.988,15.549,42.675c-0.394,12.686-0.399,40.167-4.547,61.455
			c-1.926,9.878-14.913,52.203-16.186,57.484c-1.273,5.281-2.695,15.068-4.753,21.975c-2.059,6.906-5.576,12.926-5.576,12.926
			s-4.416,23.212-6.081,28.899c-1.197,4.174-4.116,18.023-5.557,33.35c-0.524,5.54-0.843,11.283-0.824,16.822
			c0.057,20.904,3.163,27.552,3.425,30.414c0.28,2.881,19.646,28.475,21.425,30.173c0.074,0.074,0.187,0.148,0.317,0.222
			c3.125,1.902,21.724,6.833,22.903,9.916C1139.081,806.524,1129.223,807.312,1124.729,807.613z"/>
		<path style="fill:#9C7059;" d="M1009.221,195.427c0,0-8.244,16.733-16.713,17.297c-2.724,0.239-9.037-2.453-12.036-7.247
			c-2.563-3.914-3.151-9.007-0.623-14.596c2.494-5.555,9.075-5.076,15.587-2.752
			C1000.287,189.895,1005.418,192.726,1009.221,195.427z"/>
		<path style="fill:#1F8756;" d="M1009.221,195.427c0,0-8.244,16.733-16.713,17.297c-0.779,0.068-1.541,0-2.303-0.239
			c-0.087-0.034-0.19-0.052-0.277-0.103c-2.353-2.359-0.521-10.012,1.678-12.969c2.563-3.47,6.527-7.957,14.948-5.764
			C1007.575,194.299,1008.476,194.898,1009.221,195.427z"/>
		<path style="fill:#A77860;" d="M1043.63,197.708c2.016,0.284,12.382-1.421,16.126,3.979c3.742,5.399,1.439,14.209,1.439,16.198
			s-6.911,2.558-6.911,2.558L1043.63,197.708z"/>
		<path style="fill:#1F8756;" d="M1070.516,284.389c3.605,0.819,20.033,0,29.648,6.141c9.616,6.141,18.832,19.65,20.835,26.61
			c2.003,6.959,21.636,33.159,25.643,41.757c4.007,8.597,15.226,45.031-3.605,51.582c-18.832,6.55-42.07-38.892-42.07-38.892
			s-36.461-40.119-34.458-57.314C1068.512,297.08,1070.516,284.389,1070.516,284.389z"/>
		<path style="fill:#176541;" d="M936.051,424.192c0,0,3.475,2.251,5.963,2.865c2.489,0.614,28.467,9.825,30.645,6.755
			c2.178-3.07,2.956-7.215-0.311-10.132c-3.268-2.917-12.911-8.443-18.355-7.676C948.547,416.772,936.051,424.192,936.051,424.192z"
			/>
		<path style="fill:#176541;" d="M1064.851,269.651c-0.829-4.503,0.622-6.96-22.607-10.234c-14.835-2.092-34.016,0.486-37.541,6.831
			c-4.791,8.622,29.037,14.866,41.482,12.41C1058.629,276.201,1064.851,269.651,1064.851,269.651z"/>
		<path style="fill:#EEA886;" d="M1008.086,244.778c3.453,3.802,3.758,9.093,0.68,11.817c-3.079,2.725-8.376,1.851-11.83-1.951
			c-3.455-3.803-3.759-9.094-0.68-11.818C999.334,240.102,1004.631,240.976,1008.086,244.778z"/>
		<path style="fill:#A77860;" d="M1010.926,254.095c0.829,7.369,4.147,22.106-0.83,27.838c-4.978,5.731-10.785,4.913-10.785,4.913
			s21.57,13.918,39.822,12.281c18.252-1.638,31.526-14.738,31.526-14.738l-12.444-5.73c0,0-4.978-8.188-4.978-15.557
			C1053.237,255.732,1010.926,254.095,1010.926,254.095z"/>
		<path style="fill:#EEA886;" d="M1057.164,225.273c0.984,3.253,5.423,6.731,5.717,9.925c1.596,17.306-5.861,30.216-13.204,32.986
			c-16.24,6.129-42.723-4.033-49.037-24.913c-6.314-20.879,2.073-41.784,18.735-46.691c12.217-3.599,25.491,2.403,34.192,14.094
			C1056.732,214.926,1055.479,219.705,1057.164,225.273z"/>
		<path style="fill:#EEA886;" d="M1011.34,309.771c-4.977-13.51-12.029-22.925-12.029-22.925
			c-6.637,0.818-48.119,28.656-47.289,40.119c0.83,11.462,2.488,33.568,1.659,41.756c-0.829,8.189-8.296,28.043-9.956,31.318
			c-1.659,3.274-5.289,23.948-6.637,38.277c-0.744,7.901-3.432,33.622-5.168,45.029c-0.143,0.136-0.242,0.23-0.242,0.23
			c-0.479,2.206-1.108,5.028-1.764,7.398c-0.576,1.447-1.041,2.754-1.355,3.908c-0.155,0.301-0.308,0.531-0.454,0.671
			c-1.153,1.094-12.014,13.978-12.172,14.813c-0.159,0.835-1.375,4.128-1.861,5.445c-0.486,1.317-2.282,3.794-1.838,5.882
			c0.443,2.089,1.959,7.184,1.959,7.184s2.586,9.993,1.874,11.956c-0.711,1.963,1.893,1.945,1.893,1.945s-0.232,1.847,0.795,2.042
			c1.027,0.195,3.313-1.26,3.99-2.958c0,0,0.074,2.098,1.45,1.078c1.376-1.021,3.482-4.016,4.603-5.565
			c1.122-1.549,3.48-7.124,4.708-9.229c1.228-2.105,3.808-7.607,4.157-8.822c0.349-1.216,3.375-6.417,4.391-7.409
			c1.017-0.993,1.853-2.966,3.124-0.32c1.271,2.646,0.011,4.146,0.827,5.454c0.815,1.31,3.719,8.018,5.602,8.056
			c1.885,0.038,3.222-6.544,2.903-7.982c-0.317-1.438-3.705-11.607-3.833-13.426c-0.093-1.318-1.51-6.444-2.45-9.961
			c0.024-0.188,0.052-0.375,0.062-0.563c0.622-12.281,4.722-19.753,8.192-27.121c5.496-11.668,13.793-33.058,13.171-49.228
			c-0.334-8.678,23.023-67.343,27.17-73.074C1000.97,338.018,1016.318,323.28,1011.34,309.771z"/>
		<path style="fill:#1F8756;" d="M1133.3,493.175c-3.743,5.318-65.134,25.372-85.455,27.422c-20.32,2.05-80.889-2.456-80.477-12.686
			c0.411-10.229,3.312-27.422,3.742-30.709c0.411-3.268-2.919-4.081-1.254-12.279c1.053-5.166,13.658-38.005,16.492-57.442
			c0.944-6.479-4.18-10.665-4.536-12.913c-0.28-1.643-0.973-1.773-2.264,0.129c-0.057,0.074-0.094,0.148-0.149,0.222
			c-2.639,4.081-3.742,7.793-4.173,11.468c-0.973,8.494,3.237,11.006-0.393,23.433c2.058-17.469-21.556-21.753-35.608-14.717
			c-0.673-0.406-1.384-0.758-2.114-1.108c1.572-6.075,2.133-12.132,4.753-18.447c1.646-13.111,7.765-66.108,10.571-74.714
			c7.055-21.697,46.349-35.012,46.349-35.012s9.075,2.992,21.63,7.35l50.109-8.771c0,0,8.12,20.626,11.938,32.555
			c7.354,3.453,12.031,6.315,11.844,7.959c-0.168,1.496,0.506,3.324,1.666,5.393c4.584,8.18,16.914,20.184,16.578,30.635
			c-0.244,7.977-4.342,14.274-7.484,19.371c-2.059,3.287-3.705,6.075-3.705,8.476c0,6.131,19.497,53.625,19.909,56.487
			c0.411,2.862,0,8.181-0.412,10.23C1120.445,457.554,1137.023,487.857,1133.3,493.175z"/>
		<g>
			<path style="fill:#383737;" d="M1001.198,804.751c-1.086,1.921-3.817,5.263-8.926,4.064c-6.287-1.44-17.514-5.504-22.229-15.937
				c-0.336,5.447-0.467,10.119-0.093,12.667c1.104,7.368,16.541,20.055,21.687,21.292c5.164,1.219,13.041-1.44,17.102-3.065
				c4.042-1.643-2.207-11.468-5.894-15.973C1002.377,807.226,1001.815,806.174,1001.198,804.751z"/>
		</g>
		<g>
			<path style="fill:#383737;" d="M1137.828,803.311c-1.179-3.083-19.778-8.014-22.903-9.916c-1.066,1.939-3.349,3.989-8.177,3.546
				c-8.72-0.831-20.32-11.062-29.451-13.11c-3.556-0.795-6.924-1.662-9.431-2.604c-2.04,3.565-3.836,6.851-4.191,8.513
				c-0.86,4.063-0.936,14.847,16.11,12.17c14.707-2.309,18.555,1.444,22.004,2.732c7.863,2.937,17.404,3.346,22.941,2.973
				C1129.223,807.312,1139.081,806.524,1137.828,803.311z"/>
		</g>
		<path style="fill:#9C7059;" d="M1050.828,199.129c-1.727-2.273-18.141-13.641-39.449-5.399
			c-21.309,8.241-23.768,28.215-18.141,40.069c5.326,11.226,5.615,6.726,7.15,7.626c2.016,1.421,7.535,4.878,7.535,5.73
			c0,0.853,1.439-5.684-1.439-12.788c-2.88-7.105,11.518-23.587,25.052-25.86C1045.069,206.233,1050.828,199.129,1050.828,199.129z"
			/>
		<path style="fill:#A77860;" d="M1059.756,201.687c4.104,6.615-3.456,18.188-3.456,18.188s-1.151-8.241-6.623-11.651
			c-5.471-3.41-2.016,11.083-2.016,11.083s-13.534,0.568-25.628,7.105c-6.552,3.541-10.078,5.968-10.078,5.968
			s-12.958-16.198-6.623-24.724C1011.667,199.129,1051.117,187.762,1059.756,201.687z"/>
		<path style="fill:#1F8756;" d="M1008.358,263.025c-0.233,0.69-2.411,2.149,2.256,4.068c5.771,2.372,18.898,7.435,33.212,5.603
			c17.396-2.227,16.877-8.059,15.789-9.518c2.644,0.537,3.785,1.766,4.459,3.045c0.674,1.279,0.984,3.429,1.192,6.294
			c0.415,5.732,5.249,11.872,5.249,11.872s1.537,5.165-15.619,10.234c-34.638,10.234-59.423-5.936-56.104-8.801
			c2.76-2.384,3.192-15.117,5.247-18.744C1004.455,266.345,1004.937,264.099,1008.358,263.025z"/>
		<g>
			<path style="fill:#176541;" d="M1032.688,300.023c-18.446,0.001-31.196-7.091-33.688-11.541c-0.856-1.526-0.479-2.427-0.208-2.66
				c0,0,0.886,1.522,2.313,2.707c4.848,4.022,25.083,13.614,53.522,5.209c15.67-4.63,15.889-9.35,15.889-9.35
				c0.184,0.62,2.545,7.099-14.997,12.281C1047.409,299.067,1039.687,300.023,1032.688,300.023z"/>
		</g>
		<path style="fill:#176541;" d="M971.11,476.148c8.382,4.561,31.454,12.742,81.3,4.746c45.824-7.35,62.57-18.503,68.559-24.707
			v-0.018l0.019-1.403c-1.011,0.85-2.151,1.698-3.255,2.234c-7.878,3.841-23.315,15.807-49.155,19.186
			c-58.679,7.664-87.85,1.552-97.841-1.44L971.11,476.148z"/>
		<path style="fill:#EEA886;" d="M1114.925,793.395c-1.066,1.939-3.349,3.989-8.177,3.546c-8.72-0.831-20.32-11.062-29.451-13.111
			c-3.556-0.794-6.924-1.661-9.431-2.604c2.938-5.244,6.399-11.098,6.474-13.276c0.113-3.693-14.969-39.998-16.297-44.947
			c-0.3-1.107-1.328-3.582-2.657-6.979c6.605,2.363,25.186,6.075,35.196-0.259c-0.524,5.54-0.843,11.283-0.824,16.822
			c0.057,20.904,3.163,27.552,3.425,30.414c0.28,2.881,19.646,28.475,21.425,30.173
			C1114.682,793.247,1114.794,793.321,1114.925,793.395z"/>
		<path style="fill:#EEA886;" d="M1001.197,804.751c-1.085,1.921-3.816,5.264-8.925,4.064c-6.287-1.44-17.514-5.504-22.229-15.937
			c0.618-10.341,1.928-23.471,1.685-29.915c-3.124-13.518-5.688-31.207-6.736-47.882c3.799,4.099,11.732,9.916,21.462,10.229
			c4.902,0.166,9.169-1.588,12.537-3.767c-5.875,18.964-10.778,38.612-10.198,41.844
			C989.746,768.743,996.932,795.112,1001.197,804.751z"/>
		<g>
			<defs>
				<path id="SVGID_1_" d="M1146.642,358.897c-4.007-8.598-23.64-34.798-25.643-41.757c-2.003-6.96-11.219-20.47-20.835-26.61
					c-9.615-6.141-26.043-5.321-29.648-6.141l-0.002,0.011l-50.1,8.77c-12.555-4.357-21.63-7.35-21.63-7.35
					s-39.294,13.314-46.348,35.012c-2.808,8.606-8.926,61.603-10.572,74.714c-2.619,6.315-3.181,12.372-4.753,18.447
					c0.73,0.351,1.441,0.702,2.115,1.108c14.052-7.036,37.665-2.752,35.607,14.717c3.63-12.428-0.58-14.939,0.393-23.433
					c0.431-3.676,1.534-7.387,4.173-11.468c0.056-0.074,0.093-0.147,0.149-0.222c1.291-1.902,1.983-1.772,2.264-0.129
					c0.356,2.248,5.48,6.434,4.536,12.912c-2.834,19.438-15.439,52.277-16.492,57.443c-1.665,8.198,1.665,9.011,1.254,12.279
					c-0.431,3.287-3.331,20.479-3.742,30.709c-0.412,10.23,60.156,14.736,80.477,12.686c20.321-2.05,81.712-22.104,85.455-27.422
					c3.724-5.318-12.854-35.621-12.443-37.671c0.412-2.05,0.823-7.368,0.412-10.23c-0.412-2.862-19.909-50.357-19.909-56.487
					c0-2.4,1.646-5.189,3.705-8.476c0.142-0.23,0.293-0.476,0.438-0.711c7.685,12.725,23.779,35.662,37.534,30.879
					C1161.867,403.928,1150.648,367.493,1146.642,358.897z"/>
			</defs>
			<clipPath id="SVGID_00000120537713240452946170000009850878357360456587_">
				<use xlink:href="#SVGID_1_"  style="overflow:visible;"/>
			</clipPath>
			<g style="clip-path:url(#SVGID_00000120537713240452946170000009850878357360456587_);">
				<g>
					<polygon style="fill:#383737;" points="939.381,318.516 938.94,311.06 1123.9,294.487 1124.364,298.2 					"/>
				</g>
				<g>
					<polygon style="fill:#383737;" points="933.816,341.534 933.134,333.045 1130.525,309.208 1131.063,312.911 					"/>
				</g>
				<g>
					<polygon style="fill:#383737;" points="935.685,360.201 935.144,356.497 1135.502,327.252 1136.809,335.119 					"/>
				</g>
				<g>
					<polygon style="fill:#383737;" points="923.243,383.223 922.699,379.521 1172.211,342.809 1171.653,349.223 					"/>
				</g>
				<g>
					<path style="fill:#383737;" d="M941.016,392.779v-1.871l-0.102-1.869c4.181-0.322,236.24-23.488,238.783-23.833l0.505,3.708
						C1137.269,374.735,942.914,392.779,941.016,392.779z"/>
				</g>
				<g>
					<polygon style="fill:#383737;" points="978.349,414.764 981.221,408.77 1125.577,390.103 1126.057,393.814 					"/>
				</g>
				<g>
					<polygon style="fill:#383737;" points="976.786,437.974 976.176,434.281 1123.023,410.001 1124.364,416.838 					"/>
				</g>
				<g>
					<path style="fill:#383737;" d="M966.526,457.919v-1.871l-0.208-5.609c2.968-0.234,109.554-12.631,165.44-21.13l0.563,3.699
						C1104.97,437.168,968.438,457.919,966.526,457.919z"/>
				</g>
				<g>
					<path style="fill:#383737;" d="M956.363,476.986l3.881-7.884c2.772-0.149,119.557-13.083,180.922-19.901l0.413,3.719
						C1111.637,456.248,958.238,476.986,956.363,476.986z"/>
				</g>
			</g>
		</g>
		<path style="fill:#1F8756;" d="M1135.993,339.246c-4.355,0.614-18.667,24.563-22.4,30.703c-3.733,6.141-5.6,26.405,3.111,35.002
			c8.711,8.598,16.178,12.281,23.645,11.054c7.467-1.229,9.333-4.299,13.067-10.439c3.732-6.141-0.623-22.106-2.489-31.932
			C1149.059,363.809,1135.993,339.246,1135.993,339.246z"/>
		<path style="fill:#EEA886;" d="M1142.838,258.189c-2.191,1.295-0.435,13.919-1.82,17.194c-1.385,3.275-7.273,13.51-5.888,16.784
			c1.386,3.275,5.542,17.604,5.542,20.879c0,3.275-0.693,4.503-1.039,8.597c-0.347,4.094-2.425,20.06-6.928,26.2
			c-4.502,6.141-12.89,23.949-12.89,33.774c0,9.824,8.733,28.042,19.124,29.271c10.392,1.228,13.162-11.463,15.24-13.919
			c2.078-2.457,7.113-19.445,9.191-30.09c2.078-10.643-6.771-57.927-8.504-64.887c2.425-6.959,16.872-11.872,17.564-14.328
			c0.693-2.456,6.354-10.645,7.047-12.691c0.692-2.046,4.503-14.328,0.692-14.737c-3.81-0.409-9.005,5.731-10.737,6.96
			c-1.731,1.228-7.634,6.959-12.829,7.777c-4.134,0.652-7.13,1.229-7.13,1.229s-0.258-2.399,0.415-7.778
			C1150.863,260.645,1144.916,256.96,1142.838,258.189z"/>
		<path style="fill:#176541;" d="M1105.064,380.311c2.002-6.002,6.736-18.816,4.172-23.877
			c-3.199-6.334-20.451-34.975-21.518-36.747c1.815,2.475,4.865,6.241,8.252,10.618c4.584,8.18,16.914,20.184,16.578,30.635
			C1112.305,368.917,1108.207,375.214,1105.064,380.311z"/>
		<path style="fill:#176541;" d="M988.68,374.401c-0.86,6.5-4.641,15.345-6.867,20.165c-0.28-1.643-0.973-1.773-2.264,0.129
			c3.518-10.969,8.102-45.74,10.834-46.091C991.637,348.456,989.934,365.039,988.68,374.401z"/>
		<path style="fill:#1F8756;" d="M936.569,395.434c-3.079,1.339-4.459,27.53-0.518,28.759c1.513,0.472,12.502-10.285,27.896-3.582
			c10.578,4.605,8.711,13.202,8.711,13.202s5.601-6.141,4.667-13.202c-0.934-7.062,3.111-17.501-1.866-19.036
			C970.48,400.039,954.925,387.45,936.569,395.434z"/>
		<path style="fill:#8B6E60;" d="M1066.401,537.755c0,0,0.019,0,0,0.019c-2.301,5.707-6.735,19.029-11.376,33.531
			c0.299-2.732,0.842-6.213,1.628-9.543c1.777-7.541,5.726-23.876,7.429-33.905C1064.082,527.857,1067.992,529.635,1066.401,537.755
			z"/>
	</g>
</g>
</svg>
